<?xml version="1.0" encoding="UTF-8"?>
<svg width="14px" height="14px" viewBox="0 0 14 14" version="1.1" xmlns="http://www.w3.org/2000/svg" xmlns:xlink="http://www.w3.org/1999/xlink">
    <!-- Generator: Sketch 47 (45396) - http://www.bohemiancoding.com/sketch -->
    <title>list (2)</title>
    <desc>Created with Sketch.</desc>
    <defs></defs>
    <g id="Symbols" stroke="none" stroke-width="1" fill="none" fill-rule="evenodd">
        <g id="Sidebar" transform="translate(-42.000000, -464.000000)" fill-rule="nonzero" fill="#212121">
            <g id="Group-6">
                <g id="list-(2)" transform="translate(42.000000, 464.000000)">
                    <path d="M3.21169947,3.96666667 L10.8748891,3.96666667 C11.0543503,3.96666667 11.2,3.86236667 11.2,3.73333333 C11.2,3.6043 11.0543503,3.5 10.8748891,3.5 L3.21169947,3.5 C3.03223824,3.5 2.88658854,3.6043 2.88658854,3.73333333 C2.88658854,3.86236667 3.03223824,3.96666667 3.21169947,3.96666667 Z" id="Shape"></path>
                    <path d="M3.21169947,7.46666667 L10.8748891,7.46666667 C11.0543503,7.46666667 11.2,7.36236667 11.2,7.23333333 C11.2,7.1043 11.0543503,7 10.8748891,7 L3.21169947,7 C3.03223824,7 2.88658854,7.1043 2.88658854,7.23333333 C2.88658854,7.36236667 3.03223824,7.46666667 3.21169947,7.46666667 Z" id="Shape"></path>
                    <path d="M3.21169947,10.9666667 L10.8748891,10.9666667 C11.0543503,10.9666667 11.2,10.8623667 11.2,10.7333333 C11.2,10.6043 11.0543503,10.5 10.8748891,10.5 L3.21169947,10.5 C3.03223824,10.5 2.88658854,10.6043 2.88658854,10.7333333 C2.88658854,10.8623667 3.03223824,10.9666667 3.21169947,10.9666667 Z" id="Shape"></path>
                    <path d="M13.7666667,0 L0.233333333,0 C0.104533333,0 0,0.1043 0,0.233333333 L0,13.7666667 C0,13.8957 0.104533333,14 0.233333333,14 L13.7666667,14 C13.8954667,14 14,13.8957 14,13.7666667 L14,0.233333333 C14,0.1043 13.8954667,0 13.7666667,0 Z M13.125,13.125 L0.875,13.125 L0.875,0.875 L13.125,0.875 L13.125,13.125 Z" id="Shape"></path>
                </g>
            </g>
        </g>
    </g>
</svg>