<?xml version="1.0" encoding="UTF-8"?>
<svg width="36px" height="36px" viewBox="0 0 36 36" version="1.1" xmlns="http://www.w3.org/2000/svg" xmlns:xlink="http://www.w3.org/1999/xlink">
    <!-- Generator: Sketch 47.1 (45422) - http://www.bohemiancoding.com/sketch -->
    <title>avatar-inside-a-circle</title>
    <desc>Created with Sketch.</desc>
    <defs></defs>
    <g id="HR-Manager" stroke="none" stroke-width="1" fill="none" fill-rule="evenodd">
        <g id="Enroll---step1" transform="translate(-365.000000, -201.000000)" fill-rule="nonzero" fill="#307DFB">
            <g id="Group-5" transform="translate(365.000000, 201.000000)">
                <g id="avatar-inside-a-circle">
                    <path d="M36,18.0021176 C36,8.08264706 27.9173529,0 17.9978824,0 C8.07841176,0 0,8.08264706 0,18.0021176 C0,23.4657059 2.47882353,28.3807647 6.33517647,31.6844118 C6.38194118,31.7311765 6.42870588,31.7779412 6.518,31.8204706 C9.63882353,34.4395882 13.6355294,36 18.0446471,36 C22.3602353,36 26.3569412,34.4395882 29.4777647,31.914 C29.6605882,31.8672353 29.8008824,31.7311765 29.8901765,31.5908824 C33.6147647,28.2404706 36,23.4189412 36,18.0021176 Z M1.65394118,18.0021176 C1.65394118,9.00105882 9.00105882,1.65394118 18.0021176,1.65394118 C27.0031765,1.65394118 34.3502941,9.00105882 34.3502941,18.0021176 C34.3502941,22.4112353 32.6070588,26.4036471 29.7583529,29.3459412 C29.2991765,27.186 27.9215882,23.5124706 23.6952941,21.1272353 C24.6604706,19.9324706 25.2089412,18.3720588 25.2089412,16.7181176 C25.2089412,12.7681765 21.9945882,9.55382353 18.0446471,9.55382353 C14.0947059,9.55382353 10.8803529,12.7681765 10.8803529,16.7181176 C10.8803529,18.3720588 11.4755882,19.8857059 12.394,21.1272353 C8.12947059,23.5124706 6.75188235,27.1860588 6.33941176,29.3459412 C3.44394118,26.4504706 1.65394118,22.4112353 1.65394118,18.0021176 Z M12.4917647,16.7605882 C12.4917647,13.7290588 14.9705882,11.2502353 18.0021176,11.2502353 C21.0336471,11.2502353 23.5124706,13.7290588 23.5124706,16.7605882 C23.5124706,19.7921176 21.0336471,22.2709412 18.0021176,22.2709412 C14.9705882,22.2709412 12.4917647,19.7921176 12.4917647,16.7605882 Z M7.80629412,30.7660588 C7.89982353,29.4352353 8.63111765,24.9325882 13.593,22.407 C14.8345294,23.3721765 16.3481765,23.9206471 18.0021176,23.9206471 C19.6560588,23.9206471 21.2164706,23.3254118 22.458,22.3602353 C27.3730588,24.8858235 28.1511765,29.2949412 28.2914706,30.7192941 C25.4895294,32.9685294 21.9095294,34.3460588 18.0531176,34.3460588 C14.1457647,34.3502941 10.6082353,33.0194706 7.80629412,30.7660588 Z" id="Shape"></path>
                </g>
            </g>
        </g>
    </g>
</svg>