<?xml version="1.0" encoding="UTF-8"?>
<svg width="19px" height="14px" viewBox="0 0 19 14" version="1.1" xmlns="http://www.w3.org/2000/svg" xmlns:xlink="http://www.w3.org/1999/xlink">
    <!-- Generator: Sketch 47 (45396) - http://www.bohemiancoding.com/sketch -->
    <title>noun_1023963_cc</title>
    <desc>Created with Sketch.</desc>
    <defs></defs>
    <g id="Symbols" stroke="none" stroke-width="1" fill="none" fill-rule="evenodd">
        <g id="Sidebar" transform="translate(-40.000000, -404.000000)" fill="#212121">
            <g id="Group-6">
                <g id="noun_1023963_cc" transform="translate(40.000000, 404.000000)">
                    <g id="Group" transform="translate(0.000000, 0.137453)">
                        <path d="M3.24386344,6.79738529 C3.1633544,6.79533314 3.08392394,6.81647435 3.01480537,6.85835138 C1.20793991,7.9530257 -2.40356972e-05,9.95801062 -2.40356972e-05,12.2430646 C-2.40356972e-05,12.3647597 0.00216257463,12.4899891 0.0118725709,12.620326 C0.0286468537,12.8451049 0.213528892,13.0188298 0.436021798,13.0188791 L11.947631,13.0188791 C12.1732303,13.0188656 12.3595968,12.8404454 12.3723758,12.6122446 C12.3793525,12.4872522 12.3815434,12.3647597 12.3815434,12.2430646 C12.3815434,9.95801062 11.1736432,7.9530257 9.36677863,6.85835138 C9.2075745,6.76192373 9.00505837,6.78110659 8.86625544,6.90576227 C8.15366934,7.54576616 7.21911889,7.93511731 6.19182043,7.93511731 C5.16219285,7.93511731 4.22790828,7.54576616 3.51532218,6.90576227 C3.44027177,6.83834595 3.34412556,6.79996152 3.24385706,6.79738529 L3.24386344,6.79738529 Z M3.20032479,7.76036509 C4.02653168,8.40901069 5.0662032,8.79713347 6.19182681,8.79713347 C7.31570198,8.79713347 8.3551055,8.40901069 9.18126559,7.76036509 C10.5773431,8.71685821 11.5019007,10.3233115 11.5300628,12.156863 L0.851526683,12.156863 C0.879688863,10.3233115 1.80424642,8.71685821 3.20032479,7.76036509 L3.20032479,7.76036509 Z" id="Shape"></path>
                        <path d="M6.17693744,0.356249726 C4.39458201,0.356249726 2.939563,1.82786647 2.939563,3.63406616 C2.939563,5.43842975 4.39419489,6.91188258 6.17693744,6.91188258 C7.95786774,6.91188258 9.41218482,5.43842975 9.41218482,3.63406616 C9.41218482,1.82786647 7.95747849,0.356249726 6.17693744,0.356249726 Z M6.17693744,1.21826588 C7.49763732,1.21826588 8.56136368,2.29390688 8.56136368,3.63406616 C8.56136368,4.97175144 7.49724807,6.04986643 6.17693744,6.04986643 C4.8541807,6.04986643 3.79038414,4.97175144 3.79038414,3.63406616 C3.79038414,2.29390688 4.85379358,1.21826588 6.17693744,1.21826588 Z" id="Shape"></path>
                        <path d="M10.8988599,5.566868 C10.8182303,5.5648607 10.7386985,5.58611496 10.669536,5.62815304 C10.4857437,5.73987895 10.3060354,5.86354164 10.1359137,5.99807865 L10.1358499,5.99801185 C10.056262,6.06072783 9.97313035,6.12779269 9.88964353,6.20468453 C9.77509001,6.3077367 9.72406391,6.4652276 9.75605074,6.61701561 C9.78803757,6.76880361 9.89809781,6.89144901 10.0442023,6.93811675 C10.1903069,6.98478448 10.3498936,6.94826795 10.4620207,6.84251183 C10.5189193,6.79010125 10.5846814,6.73644075 10.6582413,6.67847016 C10.658454,6.67847032 10.6586667,6.67847032 10.6588794,6.67847016 C10.7232845,6.62752501 10.79041,6.57808838 10.8590223,6.53009563 C11.5649061,7.07075216 12.4461377,7.39252124 13.3983257,7.39252124 C14.3506306,7.39252124 15.2320324,7.07066596 15.9379587,6.52990168 C17.0671388,7.32045669 17.8204409,8.62567845 17.8650686,10.1143373 L12.849546,10.1143373 C12.6961277,10.112139 12.5534257,10.1938045 12.4760833,10.3280625 C12.398741,10.4623204 12.398741,10.6283702 12.4760833,10.7626282 C12.5534257,10.8968862 12.6961277,10.9785517 12.849546,10.9763534 L18.2841661,10.9763534 C18.5117753,10.9763415 18.6990605,10.7948368 18.7091768,10.5644605 C18.7134309,10.4674837 18.7180891,10.3641711 18.7180891,10.2544149 C18.7180891,8.29222905 17.6783899,6.56789504 16.126539,5.62828665 C15.9674398,5.53193857 15.7650823,5.55103561 15.6262838,5.67549712 C15.0329381,6.20772314 14.2560789,6.53050509 13.3983299,6.53050509 C12.5405789,6.53050509 11.7637855,6.20772314 11.1704399,5.67549712 C11.0953414,5.6081459 10.9991726,5.56983962 10.8989088,5.56733996 L10.8988599,5.566868 Z" id="Shape"></path>
                        <path d="M13.3833916,0.0674743145 C11.8367435,0.0674743145 10.5735548,1.34728599 10.5735548,2.91428267 C10.5735548,4.48127934 11.8367435,5.76109102 13.3833916,5.76109102 C14.9300377,5.76109102 16.1932285,4.48127934 16.1932285,2.91428267 C16.1932285,1.34728599 14.9300377,0.0674743145 13.3833916,0.0674743145 Z M13.3833916,0.929490469 C14.4700349,0.929490469 15.3424073,1.81333934 15.3424073,2.91428267 C15.3424073,4.01522599 14.4700349,4.89907486 13.3833916,4.89907486 C12.2967463,4.89907486 11.424376,4.01522599 11.424376,2.91428267 C11.424376,1.81333934 12.2967463,0.929490469 13.3833916,0.929490469 Z" id="Shape"></path>
                    </g>
                </g>
            </g>
        </g>
    </g>
</svg>