<?xml version="1.0" encoding="UTF-8"?>
<svg width="23px" height="34px" viewBox="0 0 23 34" version="1.1" xmlns="http://www.w3.org/2000/svg" xmlns:xlink="http://www.w3.org/1999/xlink">
    <!-- Generator: Sketch 47.1 (45422) - http://www.bohemiancoding.com/sketch -->
    <title>noun_471121_cc</title>
    <desc>Created with Sketch.</desc>
    <defs></defs>
    <g id="HR-Manager" stroke="none" stroke-width="1" fill="none" fill-rule="evenodd">
        <g id="Peme---single----step1" transform="translate(-1000.000000, -203.000000)" fill-rule="nonzero" fill="#D1E2FF">
            <g id="noun_471121_cc" transform="translate(1000.000000, 203.000000)">
                <path d="M21.0233333,29.6933333 L19.6066667,29.6933333 C19.3458655,29.6933333 19.1344444,29.4819122 19.1344444,29.2211111 C19.1344444,28.96031 19.3458655,28.7488889 19.6066667,28.7488889 L21.0233333,28.7488889 C21.2841345,28.7488889 21.4955556,28.5374678 21.4955556,28.2766667 L21.4955556,1.80388889 C21.4955556,1.54308776 21.2841345,1.33166667 21.0233333,1.33166667 L1.66222222,1.33166667 C1.40142109,1.33166667 1.19,1.54308776 1.19,1.80388889 L1.19,28.2766667 C1.19,28.5374678 1.40142109,28.7488889 1.66222222,28.7488889 L12.9955556,28.7488889 C13.2563567,28.7488889 13.4677778,28.96031 13.4677778,29.2211111 C13.4677778,29.4819122 13.2563567,29.6933333 12.9955556,29.6933333 L1.66222222,29.6933333 C0.879818827,29.6933333 0.245555556,29.0590701 0.245555556,28.2766667 L0.245555556,1.80388889 C0.245555556,1.02148549 0.879818827,0.387222222 1.66222222,0.387222222 L21.0233333,0.387222222 C21.8057367,0.387222222 22.44,1.02148549 22.44,1.80388889 L22.44,28.2766667 C22.44,29.0590701 21.8057367,29.6933333 21.0233333,29.6933333 Z" id="Shape"></path>
                <path d="M17.3730556,9.94972222 L5.87444444,9.94972222 C5.61364331,9.94972222 5.40222222,9.73830113 5.40222222,9.4775 C5.40222222,9.21669887 5.61364331,9.00527778 5.87444444,9.00527778 L17.3730556,9.00527778 C17.6338567,9.00527778 17.8452778,9.21669887 17.8452778,9.4775 C17.8452778,9.73830113 17.6338567,9.94972222 17.3730556,9.94972222 Z" id="Shape"></path>
                <path d="M18.8888889,12.6130556 L4.34916667,12.6130556 C4.08836553,12.6130556 3.87694444,12.4016345 3.87694444,12.1408333 C3.87694444,11.8800322 4.08836553,11.6686111 4.34916667,11.6686111 L18.8888889,11.6686111 C19.14969,11.6686111 19.3611111,11.8800322 19.3611111,12.1408333 C19.3611111,12.4016345 19.14969,12.6130556 18.8888889,12.6130556 Z" id="Shape"></path>
                <path d="M16.0130556,15.2763889 L7.23916667,15.2763889 C6.97836553,15.2763889 6.76694444,15.0649678 6.76694444,14.8041667 C6.76694444,14.5433655 6.97836553,14.3319444 7.23916667,14.3319444 L16.0130556,14.3319444 C16.2738567,14.3319444 16.4852778,14.5433655 16.4852778,14.8041667 C16.4852778,15.0649678 16.2738567,15.2763889 16.0130556,15.2763889 Z" id="Shape"></path>
                <path d="M16.3011111,29.9294444 C16.0566907,29.9305623 15.8259104,29.8169205 15.6777778,29.6225 L15.4369444,29.3155556 L15.0638889,29.4241667 C14.8301364,29.4932578 14.5775453,29.4496798 14.3804563,29.3062583 C14.1833673,29.1628367 14.0642106,28.935894 14.0580556,28.6922222 L14.0580556,28.305 L13.6944444,28.1727778 C13.4657964,28.090833 13.2880502,27.907526 13.2131857,27.6764628 C13.1383212,27.4453997 13.1747964,27.1926849 13.3119444,26.9922222 L13.5291667,26.6711111 L13.3119444,26.35 C13.1747964,26.1495373 13.1383212,25.8968225 13.2131857,25.6657594 C13.2880502,25.4346962 13.4657964,25.2513892 13.6944444,25.1694444 L14.0486111,25.0277778 L14.0486111,24.6358333 C14.0547662,24.3921616 14.1739229,24.1652189 14.3710119,24.0217973 C14.5681009,23.8783757 14.8206919,23.8347978 15.0544444,23.9038889 L15.4275,24.0125 L15.6683333,23.7055556 C15.8226599,23.5225098 16.0498845,23.4168774 16.2893056,23.4168774 C16.5287266,23.4168774 16.7559512,23.5225098 16.9102778,23.7055556 L17.1511111,24.0125 L17.5241667,23.9038889 C17.7579192,23.8347978 18.0105103,23.8783757 18.2075992,24.0217973 C18.4046882,24.1652189 18.5238449,24.3921616 18.53,24.6358333 L18.53,25.0277778 L18.8983333,25.16 C19.1269814,25.2419447 19.3047276,25.4252518 19.3795921,25.6563149 C19.4544565,25.8873781 19.4179814,26.1400929 19.2808333,26.3405556 L19.0636111,26.6616667 L19.2808333,26.9827778 C19.4160538,27.1837336 19.4514265,27.4356822 19.3767698,27.666104 C19.3021131,27.8965258 19.1257093,28.0798588 18.8983333,28.1633333 L18.53,28.2955556 L18.53,28.6875 C18.5238449,28.9311718 18.4046882,29.1581145 18.2075992,29.301536 C18.0105103,29.4449576 17.7579192,29.4885356 17.5241667,29.4194444 L17.1511111,29.3108333 L16.9102778,29.6177778 C16.7661435,29.8100408 16.5413618,29.9250453 16.3011111,29.9294444 L16.3011111,29.9294444 Z M15.5030556,28.3333333 C15.7458164,28.3336926 15.974539,28.4471809 16.1216667,28.6402778 L16.3011111,28.8716667 L16.4805556,28.6402778 C16.6776255,28.3846266 17.0112587,28.2759147 17.3211111,28.3663889 L17.6044444,28.4466667 L17.6044444,28.1538889 C17.6128067,27.8303363 17.8191627,27.5451898 18.1238889,27.4361111 L18.4166667,27.3511111 L18.2513889,27.1102778 C18.0684895,26.8443377 18.0684895,26.4931623 18.2513889,26.2272222 L18.4166667,25.9722222 L18.1427778,25.8730556 C17.8372061,25.7651053 17.6303594,25.4792808 17.6233333,25.1552778 L17.6233333,24.8625 L17.34,24.9427778 C17.0301476,25.033252 16.6965144,24.92454 16.4994444,24.6688889 L16.32,24.4375 L16.1405556,24.6688889 C15.9442948,24.9256842 15.6098726,25.0346532 15.3,24.9427778 L15.0166667,24.8625 L15.0166667,25.1552778 C15.0083044,25.4788304 14.8019484,25.7639769 14.4972222,25.8730556 L14.195,25.9722222 L14.3602778,26.2130556 C14.5431771,26.4789957 14.5431771,26.830171 14.3602778,27.0961111 L14.195,27.3369444 L14.4688889,27.4361111 C14.7744606,27.5440613 14.9813073,27.8298859 14.9883333,28.1538889 L14.9883333,28.4466667 L15.2716667,28.3663889 C15.3467412,28.3440062 15.4247169,28.3328668 15.5030556,28.3333333 L15.5030556,28.3333333 Z" id="Shape"></path>
                <path d="M17.8547222,33.6127778 C17.7807995,33.6123346 17.7080133,33.5945424 17.6422222,33.5608333 L16.3011111,32.8902778 L14.96,33.5608333 C14.8057027,33.6376126 14.6218312,33.6242347 14.4802724,33.52593 C14.3387136,33.4276253 14.2619526,33.2600083 14.28,33.0886111 L14.9458333,28.7819444 C14.9719832,28.6132357 15.0861517,28.4712932 15.2453327,28.4095852 C15.4045137,28.3478773 15.5845238,28.3757788 15.7175549,28.4827797 C15.8505861,28.5897805 15.9164276,28.7596246 15.8902778,28.9283333 L15.3661111,32.3330556 L16.1027778,31.9647222 C16.2351494,31.8989452 16.390684,31.8989452 16.5230556,31.9647222 L17.2361111,32.3 L16.6647222,28.9 C16.62169,28.6391989 16.7982266,28.3928933 17.0590278,28.3498611 C17.3198289,28.3068289 17.5661345,28.4833655 17.6091667,28.7441667 L18.3222222,33.0555556 C18.3475409,33.1939016 18.3098754,33.3363333 18.2194787,33.4440789 C18.129082,33.5518244 17.9953631,33.613669 17.8547222,33.6127778 Z" id="Shape"></path>
            </g>
        </g>
    </g>
</svg>