<?xml version="1.0" encoding="UTF-8"?>
<svg width="84px" height="84px" viewBox="0 0 84 84" version="1.1" xmlns="http://www.w3.org/2000/svg" xmlns:xlink="http://www.w3.org/1999/xlink">
    <!-- Generator: Sketch 47.1 (45422) - http://www.bohemiancoding.com/sketch -->
    <title>Success Copy@2x</title>
    <desc>Created with Sketch.</desc>
    <defs></defs>
    <g id="HR-Manager" stroke="none" stroke-width="1" fill="none" fill-rule="evenodd">
        <g id="Enroll---success" transform="translate(-598.000000, -283.000000)" fill-rule="nonzero" fill="#60DD3C">
            <g id="Group-24">
                <path d="M640,283 C616.841846,283 598,301.840231 598,325 C598,348.159769 616.841846,367 640,367 C663.158154,367 682,348.159769 682,325 C682,301.840231 663.158154,283 640,283 Z M640,363.769231 C618.623615,363.769231 601.230769,346.376385 601.230769,325 C601.230769,303.623615 618.623615,286.230769 640,286.230769 C661.376385,286.230769 678.769231,303.623615 678.769231,325 C678.769231,346.376385 661.376385,363.769231 640,363.769231 Z M659.791692,307.773538 L634.964846,335.703538 L620.008,323.738385 C619.313385,323.181077 618.294077,323.295769 617.738385,323.990385 C617.181077,324.688231 617.294154,325.704308 617.990385,326.261615 L634.144231,339.184692 C634.441462,339.422154 634.798462,339.538462 635.153846,339.538462 C635.599692,339.538462 636.043923,339.354308 636.362154,338.995692 L662.208308,309.918769 C662.801154,309.253231 662.741385,308.230692 662.074231,307.639462 C661.405462,307.045 660.386154,307.104769 659.791692,307.773538 Z" id="Success-Copy"></path>
            </g>
        </g>
    </g>
</svg>