<?xml version="1.0" encoding="UTF-8"?>
<svg width="20px" height="20px" viewBox="0 0 20 20" version="1.1" xmlns="http://www.w3.org/2000/svg" xmlns:xlink="http://www.w3.org/1999/xlink">
    <!-- Generator: Sketch 47 (45396) - http://www.bohemiancoding.com/sketch -->
    <title>Shape</title>
    <desc>Created with Sketch.</desc>
    <defs></defs>
    <g id="Symbols" stroke="none" stroke-width="1" fill="none" fill-rule="evenodd">
        <g id="Header-hover" transform="translate(-1063.000000, -30.000000)" fill-rule="nonzero" fill="#307DFB">
            <g id="Group" transform="translate(1063.000000, 26.000000)">
                <g id="notification-black" transform="translate(0.000000, 4.000000)">
                    <path d="M19.7050781,14.2930078 C17.3527344,11.94 16.99875,10.7593359 16.99875,7 C16.99875,3.13398437 13.8654297,0 10.0000781,0 C6.13472656,0 3.00140625,3.13402344 3.00140625,7 C3.00140625,9.02699219 2.94742187,9.78367187 2.66839844,10.7126562 C2.32140625,11.87 1.6090625,12.9780078 0.294726562,14.2930078 C-0.334921875,14.9230078 0.11109375,16 1.00175781,16 L6.55074219,16 L6.50039062,16.5 C6.50039062,18.4330078 8.06707031,20 9.99972656,20 C11.9323828,20 13.4990625,18.4330078 13.4990625,16.5 L13.4487109,16 L18.9980469,16 C19.8890625,16 20.3350781,14.9230078 19.7050781,14.2930078 Z M10.0003906,19 C8.62003906,19 7.50074219,17.8803516 7.50074219,16.5 L7.55109375,16 L12.4491016,16 L12.5001172,16.5 C12.5000781,17.8803516 11.3807422,19 10.0003906,19 Z M1.00207031,15 C4.00140625,12 4.00140625,10 4.00140625,7 C4.00140625,3.68667969 6.68707031,1 10.0000781,1 C13.3130859,1 15.99875,3.68667969 15.9990625,7 C15.9990625,10 15.9990625,12 18.9983984,15 L1.00207031,15 Z" id="Shape"></path>
                </g>
            </g>
        </g>
    </g>
</svg>