<?xml version="1.0" encoding="UTF-8"?>
<svg width="34px" height="24px" viewBox="0 0 34 24" version="1.1" xmlns="http://www.w3.org/2000/svg" xmlns:xlink="http://www.w3.org/1999/xlink">
    <!-- Generator: Sketch 46.2 (44496) - http://www.bohemiancoding.com/sketch -->
    <title>bed</title>
    <desc>Created with Sketch.</desc>
    <defs></defs>
    <g id="Page-1" stroke="none" stroke-width="1" fill="none" fill-rule="evenodd">
        <g id="bed" fill-rule="nonzero" fill="#ABABAB">
            <path d="M16.4119294,5.421571 L18.1663614,5.421571 C18.3939593,5.421571 18.5783599,5.60604071 18.5783599,5.83356948 L18.5783599,7.58800152 C18.5783599,7.81559941 18.7628296,8 18.9904275,8 L21.0093652,8 C21.2369631,7.99993088 21.4214328,7.81546117 21.4214328,7.58800152 L21.4214328,5.83356948 C21.4214328,5.60597159 21.6059025,5.42150188 21.8335004,5.42150188 L23.5879324,5.42150188 C23.8155303,5.42150188 24,5.23703217 24,5.0095034 L24,2.9904966 C24,2.76289871 23.8155303,2.57849812 23.5879324,2.57849812 L21.8335004,2.57849812 C21.6059025,2.57849812 21.4214328,2.39402841 21.4214328,2.16643052 L21.4214328,0.412067595 C21.4214328,0.18446971 21.2369631,0 21.0093652,0 L18.9904966,0 C18.7628987,0 18.578429,0.18446971 18.578429,0.412067595 L18.578429,2.16649964 C18.578429,2.39409752 18.3939593,2.57856723 18.1664305,2.57856723 L16.4119985,2.57856723 C16.1844006,2.57856723 16,2.76303694 16,2.99056571 L16,5.0095034 C15.9999309,5.23710129 16.1844006,5.421571 16.4119294,5.421571 Z" id="Shape"></path>
            <path d="M33.2345396,10.5815607 C33.0078964,10.5815607 13.0079785,10.5815607 12.588227,10.5815607 C13.465382,8.72683827 12.1463624,6.55492644 10.1441593,6.55492644 C6.87712377,6.55492644 6.62737132,6.47590301 5.90945756,6.83698669 L5.90945756,5.78913869 C5.90945756,5.35334568 5.56693613,5 5.14419642,5 L0.765261141,5 C0.342521431,5 0,5.35334568 0,5.78913869 L0,23.2108613 C0,23.6466543 0.342521431,24 0.765261141,24 L5.14446204,24 C5.56720175,24 5.90972319,23.6466543 5.90972319,23.2108613 L5.90972319,21.2849219 L28.0902768,21.2849219 L28.0902768,23.2108613 C28.0902768,23.6466543 28.4327982,24 28.855538,24 L33.2347389,24 C33.6574786,24 34,23.6466543 34,23.2108613 L34,11.3706309 C33.9998008,10.9348379 33.6572794,10.5815607 33.2345396,10.5815607 Z M4.3792009,22.4217226 L1.53045588,22.4217226 L1.53045588,6.57820891 L4.3791345,6.57820891 C4.3792009,6.69859296 4.3792009,22.2664833 4.3792009,22.4217226 Z M15.1672314,12.1597696 L28.090144,12.1597696 L28.090144,16.8950811 L15.1672314,16.8950811 L15.1672314,12.1597696 Z M7.09679435,8.13306687 L10.1443585,8.13306687 C10.7988547,8.13306687 11.3314961,8.68225919 11.3314961,9.35731379 C11.3314961,10.0323684 10.7989211,10.5814922 10.1443585,10.5814922 L7.09679435,10.5814922 C6.44223178,10.5814922 5.90965678,10.0322999 5.90965678,9.35731379 C5.90965678,8.68232767 6.44223178,8.13306687 7.09679435,8.13306687 Z M5.90965678,12.1597696 C6.78893678,12.1597696 12.7691166,12.1597696 13.6367756,12.1597696 L13.6367756,16.8950811 L5.90965678,16.8950811 L5.90965678,12.1597696 Z M28.0902768,19.706713 L5.90965678,19.706713 L5.90965678,18.47329 C6.97248258,18.47329 27.0149003,18.47329 28.0902768,18.47329 L28.0902768,19.706713 Z M32.4693449,22.4217226 L29.6206663,22.4217226 C29.6206663,21.2313037 29.6206663,13.2338446 29.6206663,12.1597011 L32.4693449,12.1597011 L32.4693449,22.4217226 Z" id="Shape"></path>
        </g>
    </g>
</svg>