<?xml version="1.0" encoding="UTF-8"?>
<svg width="16px" height="16px" viewBox="0 0 16 16" version="1.1" xmlns="http://www.w3.org/2000/svg" xmlns:xlink="http://www.w3.org/1999/xlink">
    <!-- Generator: Sketch 47 (45396) - http://www.bohemiancoding.com/sketch -->
    <title>finance-black</title>
    <desc>Created with Sketch.</desc>
    <defs></defs>
    <g id="Symbols" stroke="none" stroke-width="1" fill="none" fill-rule="evenodd">
        <g id="Sidebar" transform="translate(-41.000000, -642.000000)" fill="#212121">
            <g id="Group-6">
                <g id="finance-black" transform="translate(41.000000, 642.000000)">
                    <g id="pie-chart">
                        <path d="M9.32897959,7.04489796 L15.5722449,7.04489796 C15.7942857,7.04489796 15.9738776,6.86530612 15.9738776,6.64326531 C15.9738776,2.97959184 12.9959184,0.00163265306 9.3322449,0.00163265306 C9.11020408,0.00163265306 8.93061224,0.18122449 8.93061224,0.4 L8.93061224,6.64326531 C8.93061224,6.86857143 9.10693878,7.04489796 9.32897959,7.04489796 Z M9.73061224,0.817959184 C12.6334694,1.01387755 14.9616327,3.34204082 15.157551,6.24489796 L9.73061224,6.24489796 L9.73061224,0.817959184 Z" id="Shape" fill-rule="nonzero"></path>
                        <path d="M7.26204082,15.9722449 C11.2653061,15.9722449 14.5208163,12.7167347 14.5208163,8.71346939 C14.5208163,8.49142857 14.3412245,8.31183673 14.1191837,8.31183673 L7.66040816,8.31183673 L7.66040816,1.85632653 C7.66040816,1.63428571 7.48081633,1.45469388 7.25877551,1.45469388 C3.2555102,1.45469388 0,4.71020408 0,8.71346939 C0,12.7167347 3.25877551,15.9722449 7.26204082,15.9722449 Z M6.86040816,2.2677551 L6.86040816,8.71346939 C6.86040816,8.9355102 7.04,9.11510204 7.26204082,9.11510204 L13.7077551,9.11510204 C13.4987755,12.4914286 10.6873469,15.1722449 7.26204082,15.1722449 C3.69959184,15.1722449 0.803265306,12.2759184 0.803265306,8.71346939 C0.803265306,5.28816327 3.48408163,2.47346939 6.86040816,2.2677551 Z" id="Shape" fill-rule="nonzero"></path>
                    </g>
                </g>
            </g>
        </g>
    </g>
</svg>