<?xml version="1.0" encoding="UTF-8"?>
<svg width="17px" height="16px" viewBox="0 0 17 16" version="1.1" xmlns="http://www.w3.org/2000/svg" xmlns:xlink="http://www.w3.org/1999/xlink">
    <!-- Generator: Sketch 47 (45396) - http://www.bohemiancoding.com/sketch -->
    <title>noun_1214249_cc</title>
    <desc>Created with Sketch.</desc>
    <defs></defs>
    <g id="Symbols" stroke="none" stroke-width="1" fill="none" fill-rule="evenodd">
        <g id="Sidebar" transform="translate(-41.000000, -582.000000)" fill-rule="nonzero" fill="#000000">
            <g id="Group-6">
                <g id="noun_1214249_cc" transform="translate(41.000000, 582.000000)">
                    <path d="M13.3652174,2.20173913 C13.3652174,1.04914487 12.4308551,0.114782609 11.2782609,0.114782609 L2.11478261,0.114782609 C0.962188348,0.114782609 0.027826087,1.04914487 0.027826087,2.20173913 L0.027826087,10.3843478 C0.027826087,11.5369421 0.962188348,12.4713043 2.11478261,12.4713043 L8.14956522,12.4713043 C8.49395834,14.4737468 10.2483993,15.925035 12.279903,15.8879544 C14.3114067,15.8508737 16.0117165,14.3365264 16.2828041,12.3228498 C16.5538917,10.3091731 15.3145902,8.39908597 13.3652174,7.82608696 L13.3652174,2.20173913 Z M11.2782609,0.810434783 C11.9954477,0.806840698 12.5978546,1.3490069 12.6695652,2.0626087 L0.730434783,2.0626087 C0.80188735,1.35166463 1.40025694,0.810425806 2.11478261,0.810434783 L11.2782609,0.810434783 Z M15.6243478,11.7669565 C15.6250513,13.1507272 14.7920294,14.398634 13.5137939,14.9286676 C12.2355584,15.4587012 10.7638962,15.1664556 9.78517375,14.1882307 C8.80645127,13.2100058 8.51345729,11.7384924 9.04284084,10.4599875 C9.57222439,9.18148268 10.8197075,8.34782627 12.2034783,8.34782609 C14.0919776,8.34974335 15.6224306,9.88019629 15.6243478,11.7686957 L15.6243478,11.7669565 Z M12.2034783,7.65217391 C11.5599262,7.65160415 10.9253276,7.80295441 10.3513043,8.09391304 C10.3229495,8.08619815 10.2937312,8.0821076 10.2643478,8.08173913 L7.03826087,8.08173913 C6.84616183,8.08173913 6.69043478,8.23746617 6.69043478,8.42956522 C6.69043478,8.62166426 6.84616183,8.7773913 7.03826087,8.7773913 L9.38086957,8.7773913 C8.55583837,9.55347414 8.08820882,10.6360082 8.08869565,11.7686957 L2.11478261,11.7686957 C1.34638644,11.7686957 0.723478261,11.1457875 0.723478261,10.3773913 L0.723478261,2.06567725 L12.6695652,2.06567725 L12.6695652,7.68 C12.5148509,7.66195481 12.3592406,7.65266464 12.2034783,7.65217391 Z" id="Shape"></path>
                    <path d="M11.3043478,3.73391304 L7.03826087,3.73391304 C6.84616183,3.73391304 6.69043478,3.88964009 6.69043478,4.08173913 C6.69043478,4.27383817 6.84616183,4.42956522 7.03826087,4.42956522 L11.3043478,4.42956522 C11.4964469,4.42956522 11.6521739,4.27383817 11.6521739,4.08173913 C11.6521739,3.88964009 11.4964469,3.73391304 11.3043478,3.73391304 Z" id="Shape"></path>
                    <path d="M4.64521739,3.04869565 L3.18782609,4.53565217 L2.56347826,3.92173913 C2.42497629,3.79826002 2.21393442,3.80524065 2.08389489,3.93760231 C1.95385537,4.06996396 1.95061079,4.28109633 2.07652174,4.4173913 L2.94608696,5.27478261 C3.0111536,5.33840461 3.09856291,5.37399268 3.18956522,5.37391304 C3.28191605,5.37306484 3.37013819,5.33552351 3.43478261,5.26956522 L5.13565217,3.53043478 C5.2701215,3.39308397 5.2677856,3.1727302 5.13043478,3.03826087 C4.99308397,2.90379154 4.7727302,2.90612744 4.63826087,3.04347826 L4.64521739,3.04869565 Z" id="Shape"></path>
                    <path d="M4.64521739,7.39826087 L3.18782609,8.88521739 L2.56347826,8.27130435 C2.42497629,8.14782523 2.21393442,8.15480586 2.08389489,8.28716752 C1.95385537,8.41952918 1.95061079,8.63066155 2.07652174,8.76695652 L2.94608696,9.62434783 C3.0111536,9.68796983 3.09856291,9.7235579 3.18956522,9.72347826 L3.18956522,9.72347826 C3.28191605,9.72263006 3.37013819,9.68508872 3.43478261,9.61913043 L5.13565217,7.88 C5.2701215,7.74264918 5.2677856,7.52229542 5.13043478,7.38782609 C4.99308397,7.25335676 4.7727302,7.25569266 4.63826087,7.39304348 L4.64521739,7.39826087 Z" id="Shape"></path>
                    <path d="M11.0852174,11.7495652 C10.9981653,11.6553338 10.8663112,11.6166698 10.7421563,11.6489682 C10.6180014,11.6812666 10.5217043,11.7792833 10.4916082,11.9039904 C10.4615121,12.0286975 10.5025036,12.1598466 10.5982609,12.2452174 L11.4678261,13.1026087 C11.5328927,13.1662307 11.620302,13.2018188 11.7113043,13.2017391 L11.7113043,13.2017391 C11.8036552,13.2008909 11.8918773,13.1633496 11.9565217,13.0973913 L13.6573913,11.3582609 C13.7443777,11.2694105 13.7773553,11.1409026 13.7439018,11.021145 C13.7104483,10.9013874 13.6156461,10.808574 13.4952062,10.7776667 C13.3747663,10.7467595 13.2469864,10.7824539 13.16,10.8713043 L11.7026087,12.3582609 L11.0852174,11.7495652 Z" id="Shape"></path>
                </g>
            </g>
        </g>
    </g>
</svg>