<?xml version="1.0" encoding="UTF-8"?>
<svg width="30px" height="30px" viewBox="0 0 30 30" version="1.1" xmlns="http://www.w3.org/2000/svg" xmlns:xlink="http://www.w3.org/1999/xlink">
    <!-- Generator: Sketch 47.1 (45422) - http://www.bohemiancoding.com/sketch -->
    <title>telephone</title>
    <desc>Created with Sketch.</desc>
    <defs></defs>
    <g id="HR-Manager" stroke="none" stroke-width="1" fill="none" fill-rule="evenodd">
        <g id="Enroll---step1" transform="translate(-814.000000, -204.000000)" fill-rule="nonzero" fill="#D1E2FF">
            <g id="Group-7" transform="translate(814.000000, 204.000000)">
                <g id="telephone">
                    <path d="M6.12068465,19.9254658 C9.08334025,23.4596273 12.6497303,26.242236 16.7202697,28.2111801 C18.2700622,28.9440994 20.3426763,29.8136646 22.651805,29.9627329 C22.7949585,29.9689441 22.931888,29.9751553 23.0750415,29.9751553 C24.624834,29.9751553 25.8696473,29.4409938 26.8841701,28.3416149 C26.8903942,28.3354037 26.9028423,28.3229814 26.9090664,28.310559 C27.2700622,27.8757764 27.6808506,27.484472 28.1103112,27.068323 C28.4028423,26.7888199 28.7015975,26.4968944 28.9879046,26.1987578 C30.3136307,24.8198758 30.3136307,23.068323 28.9754564,21.7329193 L25.2347925,18 C24.5999378,17.3416149 23.8406017,16.9937888 23.0439212,16.9937888 C22.2472407,16.9937888 21.4816805,17.3416149 20.8281535,17.9937888 L18.5999378,20.2173913 C18.3945436,20.0993789 18.1829253,19.9937888 17.9837552,19.8944099 C17.7347925,19.7701863 17.5045021,19.6521739 17.2991079,19.5217391 C15.2700622,18.2360248 13.4277386,16.5590062 11.6663278,14.4037267 C10.7762863,13.2795031 10.1787759,12.3354037 9.76176349,11.3726708 C10.3468257,10.8447205 10.8945436,10.2919255 11.4235892,9.7515528 C11.6103112,9.55900621 11.8032573,9.36645963 11.9962033,9.17391304 C12.6684025,8.50310559 13.0293983,7.72670807 13.0293983,6.9378882 C13.0293983,6.14906832 12.6746266,5.37267081 11.9962033,4.70186335 L10.1414315,2.85093168 C9.92358921,2.63354037 9.71819502,2.42236025 9.50657676,2.20496894 C9.09578838,1.7826087 8.6663278,1.34782609 8.24309129,0.956521739 C7.60201245,0.329192547 6.84890041,2.84217094e-14 6.05221992,2.84217094e-14 C5.26176349,2.84217094e-14 4.50242739,0.329192547 3.83645228,0.962732919 L1.50865145,3.28571429 C0.662178423,4.13043478 0.182925311,5.1552795 0.083340249,6.34161491 C-0.0349170124,7.82608696 0.238941909,9.40372671 0.948485477,11.310559 C2.0376971,14.2608696 3.68085062,17 6.12068465,19.9254658 Z M1.60201245,6.47204969 C1.67670124,5.64596273 1.99412863,4.95652174 2.591639,4.36024845 L4.9069917,2.04968944 C5.26798755,1.70186335 5.6663278,1.52173913 6.05221992,1.52173913 C6.43188797,1.52173913 6.81778008,1.70186335 7.17255187,2.0621118 C7.58956432,2.44720497 7.9816805,2.85093168 8.40491701,3.27950311 C8.61653527,3.49689441 8.83437759,3.71428571 9.05221992,3.9378882 L10.9069917,5.78881988 C11.2928838,6.17391304 11.4920539,6.56521739 11.4920539,6.95031056 C11.4920539,7.33540373 11.2928838,7.72670807 10.9069917,8.11180124 C10.7140456,8.30434783 10.5210996,8.50310559 10.3281535,8.69565217 C9.74931535,9.27950311 9.20782158,9.83229814 8.6103112,10.3602484 C8.59786307,10.3726708 8.591639,10.378882 8.57919087,10.3913043 C8.06259336,10.9068323 8.14350622,11.3975155 8.26798755,11.7701863 C8.27421162,11.7888199 8.28043568,11.8012422 8.28665975,11.8198758 C8.76591286,12.9689441 9.43188797,14.0621118 10.4713071,15.3664596 C12.338527,17.6645963 14.305332,19.447205 16.4713071,20.8198758 C16.7389419,20.9937888 17.025249,21.1304348 17.2928838,21.2670807 C17.5418465,21.3913043 17.7721369,21.5093168 17.9775311,21.6397516 C18.0024274,21.6521739 18.0210996,21.6645963 18.0459959,21.6770186 C18.25139,21.7826087 18.4505602,21.8322981 18.6497303,21.8322981 C19.1476556,21.8322981 19.4713071,21.515528 19.5771162,21.4099379 L21.904917,19.0869565 C22.2659129,18.7267081 22.658029,18.5341615 23.0439212,18.5341615 C23.5169502,18.5341615 23.9028423,18.826087 24.1455809,19.0869565 L27.8986929,22.826087 C28.6455809,23.5714286 28.6393568,24.378882 27.8800207,25.1677019 C27.61861,25.447205 27.344751,25.7142857 27.0522199,25.9937888 C26.6165353,26.4161491 26.1621784,26.8509317 25.75139,27.3416149 C25.0356224,28.1118012 24.1829253,28.4720497 23.0812656,28.4720497 C22.9754564,28.4720497 22.8634232,28.4658385 22.7576141,28.4596273 C20.7161203,28.3291925 18.8177801,27.5341615 17.3924689,26.8571429 C13.5210996,24.9875776 10.1227593,22.3354037 7.30325726,18.9689441 C4.9816805,16.1801242 3.41943983,13.5838509 2.38624481,10.8012422 C1.74516598,9.0931677 1.50242739,7.72049689 1.60201245,6.47204969 Z" id="Shape"></path>
                </g>
            </g>
        </g>
    </g>
</svg>