<?xml version="1.0" encoding="UTF-8"?>
<svg width="41px" height="29px" viewBox="0 0 41 29" version="1.1" xmlns="http://www.w3.org/2000/svg" xmlns:xlink="http://www.w3.org/1999/xlink">
    <!-- Generator: Sketch 47.1 (45422) - http://www.bohemiancoding.com/sketch -->
    <title>Group 8</title>
    <desc>Created with Sketch.</desc>
    <defs></defs>
    <g id="HR-Manager" stroke="none" stroke-width="1" fill="none" fill-rule="evenodd">
        <g id="Member-detail---general" transform="translate(-952.000000, -486.000000)" fill-rule="nonzero" fill="#D1E2FF">
            <g id="Group-8" transform="translate(952.000000, 486.000000)">
                <path d="M27.5644208,11.6643674 C28.9813579,11.6643674 30.2641715,11.0900323 31.1926381,10.1615596 C32.1211353,9.23309291 32.695446,7.95024111 32.695446,6.53331167 C32.695446,5.11637459 32.1211414,3.83356099 31.1926381,2.90509434 C30.2641715,1.97659714 28.9813502,1.40228645 27.5644208,1.40228645 C26.1474837,1.40228645 24.8646701,1.97662158 23.9361729,2.90509434 C23.0077063,3.83356099 22.433365,5.11638223 22.433365,6.53331167 C22.433365,7.95024875 23.0077002,9.23309291 23.9361729,10.1615596 C24.8646701,11.0900262 26.1474914,11.6643674 27.5644208,11.6643674 Z M32.0568927,11.0258164 C30.9071712,12.1755379 29.3187904,12.88673 27.5644208,12.88673 C25.8100435,12.88673 24.2216704,12.1755409 23.0719184,11.0258164 C21.9221969,9.87609489 21.2110048,8.28768359 21.2110048,6.53331396 C21.2110048,4.7789367 21.9221938,3.19056359 23.0719184,2.0408421 C24.2216704,0.891120609 25.8100512,0.179928497 27.5644208,0.179928497 C29.3187981,0.179928497 30.9071712,0.891086994 32.0568927,2.0408421 C33.2066447,3.19056359 33.9178063,4.77894434 33.9178063,6.53331396 C33.9178063,8.28769123 33.2066478,9.87609489 32.0568927,11.0258164 Z" id="Shape"></path>
                <path d="M27.5644208,12.2192426 C30.7265827,12.2192426 33.60518,13.9165586 35.8074835,16.7259168 C37.9928115,19.5135857 39.5128853,23.4089881 39.9661517,27.8150161 L40.0353907,28.4882769 L39.359754,28.4882769 L15.7690416,28.4882769 L15.0934049,28.4882769 L15.1626439,27.8150161 C15.6159157,23.4090186 17.1359841,19.5135857 19.3213121,16.7259168 C21.5236385,13.9165662 24.4022587,12.2192426 27.5644512,12.2192426 L27.5644208,12.2192426 Z M34.8477779,17.475575 C32.8764547,14.9608668 30.3310575,13.4416029 27.5644208,13.4416029 C24.7977765,13.4416029 22.2523564,14.9608591 20.2810331,17.475575 C18.3432407,19.9474854 16.9614694,23.3691926 16.45406,27.2659166 L38.6747358,27.2659166 C38.1673241,23.3692232 36.7855551,19.947516 34.8477627,17.475575 L34.8477779,17.475575 Z" id="Shape"></path>
                <path d="M10.8808842,14.8137786 C11.9777309,14.8137786 12.9707764,14.3691993 13.689486,13.6504889 C14.4082239,12.9317808 14.8528063,11.9387338 14.8528063,10.8419176 C14.8528063,9.74507086 14.408227,8.7520254 13.689486,8.03331577 C12.9707779,7.31457788 11.9777309,6.86999552 10.8808842,6.86999552 C9.78403738,6.86999552 8.79099192,7.31457482 8.07228229,8.03331577 C7.3535444,8.75202387 6.90896204,9.74507086 6.90896204,10.8419176 C6.90896204,11.9387338 7.35354134,12.9317793 8.07228229,13.6504889 C8.79099039,14.369197 9.78403738,14.8137786 10.8808842,14.8137786 Z M14.5537406,14.5147458 C13.6137837,15.4547026 12.3151711,16.0361412 10.8808842,16.0361412 C9.4465972,16.0361412 8.14799223,15.4547079 7.20802776,14.5147458 C6.26804036,13.5747889 5.68660179,12.2761763 5.68660179,10.8419199 C5.68660179,9.40763297 6.26803502,8.109028 7.20802776,7.16906353 C8.14798459,6.22907614 9.4465972,5.64763757 10.8808842,5.64763757 C12.3151711,5.64763757 13.6137761,6.22907079 14.5537406,7.16906353 C15.4937279,8.10902036 16.0751665,9.40763297 16.0751665,10.8419199 C16.0751665,12.2761763 15.4937333,13.5747889 14.5537406,14.5147458 Z" id="Shape"></path>
                <path d="M10.8808842,15.2565786 C12.3431479,15.2565786 13.731413,15.7044965 14.9871589,16.5125996 C16.2653734,17.335164 17.403154,18.5325041 18.3361968,20.0089319 L18.5161221,20.2935875 L18.3720196,20.5962302 C17.858652,21.6744589 17.4259204,22.8459842 17.0873954,24.0909047 C16.7542243,25.316061 16.5126699,26.6051316 16.3754546,27.9390551 L16.3189686,28.4881547 L15.7690569,28.4881547 L1.46660167,28.4881547 L0.790964961,28.4881547 L0.860203953,27.8148939 C1.22435577,24.2750991 2.44695743,21.143733 4.2049101,18.9012138 C5.98596538,16.6291975 8.31711333,15.256571 10.8808764,15.256571 L10.8808842,15.2565786 Z M14.3282151,17.5392065 C13.2681843,16.8570432 12.1023735,16.4789389 10.8808842,16.4789389 C8.71266918,16.4789389 6.7146908,17.6735668 5.16463869,19.6508797 C3.65422161,21.5776021 2.57043117,24.2356321 2.15397304,27.2657868 L15.2249004,27.2657868 C15.3754997,26.050371 15.6060155,24.8812217 15.907966,23.7709901 C16.2334973,22.5738333 16.6426755,21.4385815 17.1245506,20.381133 C16.3238206,19.1840068 15.376308,18.2136973 14.3281876,17.5392065 L14.3282151,17.5392065 Z" id="Shape"></path>
            </g>
        </g>
    </g>
</svg>