<?xml version="1.0" encoding="UTF-8"?>
<svg width="16px" height="16px" viewBox="0 0 16 16" version="1.1" xmlns="http://www.w3.org/2000/svg" xmlns:xlink="http://www.w3.org/1999/xlink">
    <!-- Generator: Sketch 47 (45396) - http://www.bohemiancoding.com/sketch -->
    <title>Shape</title>
    <desc>Created with Sketch.</desc>
    <defs></defs>
    <g id="Symbols" stroke="none" stroke-width="1" fill="none" fill-rule="evenodd">
        <g id="avatar-inside-a-circle" fill-rule="nonzero" fill="#212121">
            <path d="M16,8.00094118 C16,3.59228758 12.4077124,0 7.99905882,0 C3.59040523,0 0,3.59228758 0,8.00094118 C0,10.4292026 1.10169935,12.6136732 2.81563399,14.0819608 C2.8364183,14.1027451 2.85720261,14.1235294 2.89688889,14.1424314 C4.28392157,15.3064837 6.06023529,16 8.01984314,16 C9.93788235,16 11.7141961,15.3064837 13.1012288,14.184 C13.1824837,14.1632157 13.2448366,14.1027451 13.2845229,14.0403922 C14.9398954,12.5513203 16,10.4084183 16,8.00094118 Z M0.735084967,8.00094118 C0.735084967,4.00047059 4.00047059,0.735084967 8.00094118,0.735084967 C12.0014118,0.735084967 15.2667974,4.00047059 15.2667974,8.00094118 C15.2667974,9.96054902 14.4920261,11.7349542 13.2259346,13.0426405 C13.0218562,12.0826667 12.4095948,10.4499869 10.5312418,9.38988235 C10.9602092,8.85887582 11.2039739,8.16535948 11.2039739,7.43027451 C11.2039739,5.6747451 9.77537255,4.24614379 8.01984314,4.24614379 C6.26431373,4.24614379 4.83571242,5.6747451 4.83571242,7.43027451 C4.83571242,8.16535948 5.10026144,8.8380915 5.50844444,9.38988235 C3.61309804,10.4499869 3.0008366,12.0826928 2.81751634,13.0426405 C1.53064052,11.7557647 0.735084967,9.96054902 0.735084967,8.00094118 Z M5.55189542,7.44915033 C5.55189542,6.10180392 6.65359477,5.00010458 8.00094118,5.00010458 C9.34828758,5.00010458 10.4499869,6.10180392 10.4499869,7.44915033 C10.4499869,8.79649673 9.34828758,9.89819608 8.00094118,9.89819608 C6.65359477,9.89819608 5.55189542,8.79649673 5.55189542,7.44915033 Z M3.46946405,13.6738039 C3.51103268,13.0823268 3.83605229,11.0811503 6.04133333,9.95866667 C6.59312418,10.387634 7.26585621,10.6313987 8.00094118,10.6313987 C8.73602614,10.6313987 9.42954248,10.3668497 9.98133333,9.93788235 C12.1658039,11.060366 12.511634,13.0199739 12.5739869,13.6530196 C11.3286797,14.6526797 9.73756863,15.264915 8.02360784,15.264915 C6.28700654,15.2667974 4.71477124,14.6753203 3.46946405,13.6738039 Z" id="Shape"></path>
        </g>
    </g>
</svg>