<?xml version="1.0" encoding="UTF-8"?>
<svg width="15px" height="15px" viewBox="0 0 15 15" version="1.1" xmlns="http://www.w3.org/2000/svg" xmlns:xlink="http://www.w3.org/1999/xlink">
    <!-- Generator: Sketch 47 (45396) - http://www.bohemiancoding.com/sketch -->
    <title>noun_521614_cc</title>
    <desc>Created with Sketch.</desc>
    <defs></defs>
    <g id="Symbols" stroke="none" stroke-width="1" fill="none" fill-rule="evenodd">
        <g id="Sidebar" transform="translate(-41.000000, -522.000000)" fill-rule="nonzero" fill="#212121">
            <g id="Group-6">
                <g id="noun_521614_cc" transform="translate(41.000000, 522.000000)">
                    <g id="Group">
                        <path d="M11.098644,12.197955 L8.02057313,12.197955 C7.79191644,12.197955 7.60723219,12.3826392 7.60723219,12.6112959 C7.60723219,12.8399526 7.79191644,13.0246368 8.02057313,13.0246368 L11.098644,13.0246368 C11.3273006,13.0246368 11.5119849,12.8399526 11.5119849,12.6112959 C11.5119849,12.3826392 11.3273006,12.197955 11.098644,12.197955 Z" id="Shape"></path>
                        <path d="M11.098644,10.0110589 L8.96451485,10.0110589 C8.73585816,10.0110589 8.55117391,10.1957432 8.55117391,10.4243999 C8.55117391,10.6530566 8.73585816,10.8377408 8.96451485,10.8377408 L11.098644,10.8377408 C11.3273006,10.8377408 11.5119849,10.6530566 11.5119849,10.4243999 C11.5119849,10.1957432 11.3273006,10.0110589 11.098644,10.0110589 Z" id="Shape"></path>
                        <path d="M11.098644,7.8212314 L8.95278887,7.8212314 C8.72413218,7.8212314 8.53944793,8.00591565 8.53944793,8.23457234 C8.53944793,8.46322903 8.72413218,8.64791328 8.95278887,8.64791328 L11.098644,8.64791328 C11.3273006,8.64791328 11.5119849,8.46322903 11.5119849,8.23457234 C11.5119849,8.00591565 11.3273006,7.8212314 11.098644,7.8212314 Z" id="Shape"></path>
                        <path d="M11.5119849,6.0476763 C11.5119849,5.81901961 11.3273006,5.63433536 11.098644,5.63433536 L6.72192039,5.63433536 C6.4932637,5.63433536 6.30857945,5.81901961 6.30857945,6.0476763 C6.30857945,6.27633299 6.4932637,6.46101724 6.72192039,6.46101724 L11.098644,6.46101724 C11.3243692,6.46101724 11.5119849,6.27633299 11.5119849,6.0476763 Z" id="Shape"></path>
                        <path d="M12.7138983,12.197955 L12.4119542,12.197955 C12.1832975,12.197955 11.9986132,12.3826392 11.9986132,12.6112959 C11.9986132,12.8399526 12.1832975,13.0246368 12.4119542,13.0246368 L12.7138983,13.0246368 C12.942555,13.0246368 13.1272392,12.8399526 13.1272392,12.6112959 C13.1272392,12.3855707 12.942555,12.197955 12.7138983,12.197955 Z" id="Shape"></path>
                        <path d="M12.7138983,10.0110589 L12.4119542,10.0110589 C12.1832975,10.0110589 11.9986132,10.1957432 11.9986132,10.4243999 C11.9986132,10.6530566 12.1832975,10.8377408 12.4119542,10.8377408 L12.7138983,10.8377408 C12.942555,10.8377408 13.1272392,10.6530566 13.1272392,10.4243999 C13.1272392,10.1957432 12.942555,10.0110589 12.7138983,10.0110589 Z" id="Shape"></path>
                        <path d="M12.7138983,7.8241629 L12.4119542,7.8241629 C12.1832975,7.8241629 11.9986132,8.00884715 11.9986132,8.23750384 C11.9986132,8.46616053 12.1832975,8.65084478 12.4119542,8.65084478 L12.7138983,8.65084478 C12.942555,8.65084478 13.1272392,8.46616053 13.1272392,8.23750384 C13.1272392,8.00884715 12.942555,7.8241629 12.7138983,7.8241629 Z" id="Shape"></path>
                        <path d="M11.9986132,6.0476763 C11.9986132,6.27633299 12.1832975,6.46101724 12.4119542,6.46101724 L12.7138983,6.46101724 C12.942555,6.46101724 13.1272392,6.27633299 13.1272392,6.0476763 C13.1272392,5.81901961 12.942555,5.63433536 12.7138983,5.63433536 L12.4119542,5.63433536 C12.186229,5.63433536 11.9986132,5.81901961 11.9986132,6.0476763 Z" id="Shape"></path>
                        <path d="M14.4786589,2.49470312 L12.6669943,2.49470312 L12.6669943,1.81166454 C12.6669943,1.58300785 12.4823101,1.3983236 12.2536534,1.3983236 L11.2510818,1.3983236 L10.9491377,0.304875587 C10.8963707,0.123122833 10.732207,0 10.5475227,0 L9.15799359,0 C8.97330934,0 8.80914556,0.123122833 8.75931013,0.304875587 L8.45736604,1.3983236 L7.4518629,1.3983236 C7.22320621,1.3983236 7.03852196,1.58300785 7.03852196,1.81166454 L7.03852196,2.49763461 L5.22685742,2.49763461 C4.99820073,2.49763461 4.81351648,2.68231886 4.81351648,2.91097555 L4.81351648,7.20561723 C4.46466845,7.35219204 4.15979286,7.58084873 3.92820468,7.87986132 C3.52365822,7.35805503 2.89338658,7.03265897 2.19569052,7.03265897 C0.984982665,7.03265897 0,8.01764163 0,9.22834949 C0,12.2653794 3.54711019,14.7161101 3.69661649,14.8187124 C3.85198578,14.9154518 4.00735507,14.9154518 4.16272436,14.8187124 C4.20083381,14.792329 4.45587396,14.6164392 4.81644797,14.3203581 L4.81644797,14.4786589 C4.81644797,14.7073156 5.00113222,14.8919998 5.22978891,14.8919998 L14.4786589,14.8919998 C14.7073156,14.8919998 14.8919998,14.7073156 14.8919998,14.4786589 L14.8919998,2.91097555 C14.8919998,2.68231886 14.7073156,2.49470312 14.4786589,2.49470312 Z M9.47459516,0.82668188 L10.2338526,0.82668188 L10.3921534,1.3983236 L9.31922587,1.3983236 L9.47459516,0.82668188 Z M7.86813534,2.22500548 L11.837381,2.22500548 L11.837381,3.59108263 L7.86813534,3.59108263 L7.86813534,2.22500548 Z M0.82668188,9.22834949 C0.82668188,8.47495501 1.43936455,7.85934085 2.19569052,7.85934085 C2.83475666,7.85934085 3.38001492,8.29320226 3.52658972,8.91467942 C3.67316452,9.39544477 4.25946373,9.27525343 4.33275113,8.91467942 C4.47932593,8.29320226 5.02458419,7.85934085 5.66365032,7.85934085 C6.4170448,7.85934085 7.03265897,8.47202352 7.03265897,9.22834949 C7.03265897,9.76481327 6.89194716,10.2866196 6.66915346,10.7791109 L5.88644402,10.7791109 C5.71055426,10.7791109 5.55518497,10.6706455 5.49655505,10.5035503 L5.25910387,9.84103216 C5.13011805,9.48045815 4.62296923,9.47459516 4.48518892,9.83223767 L3.88130074,11.3888621 L3.687822,11.0077676 C3.6174661,10.8670558 3.47382279,10.7791109 3.3184535,10.7791109 L1.19018739,10.7791109 C0.967393689,10.2866196 0.82668188,9.76481327 0.82668188,9.22834949 Z M3.92820468,13.9656471 C3.4650283,13.6109361 2.40382674,12.7373502 1.65336376,11.6087243 L2.80837319,11.6087243 C2.96374248,11.6087243 3.10738579,11.6966691 3.17774169,11.837381 L3.55883618,12.5937069 C3.72006846,12.91324 4.18324483,12.889788 4.31516215,12.5555975 L4.85162592,11.1689999 L4.91025585,11.3331636 C4.96888577,11.4973274 5.12425506,11.6087243 5.30014482,11.6087243 L6.2001141,11.6087243 C5.45258261,12.7344187 4.39431254,13.6109361 3.92820468,13.9656471 Z M14.0653179,14.0653179 L5.64312985,14.0653179 L5.64312985,13.5698951 C6.67208496,12.546803 7.85934085,10.9872471 7.85934085,9.22834949 C7.85934085,8.01764163 6.87435818,7.03265897 5.66365032,7.03265897 C5.65778733,7.03265897 5.64899284,7.03265897 5.64312985,7.03265897 L5.64312985,3.32431649 L7.04145346,3.32431649 L7.04145346,4.00442357 C7.04145346,4.23308026 7.22613771,4.41776451 7.4547944,4.41776451 L12.2536534,4.41776451 C12.4823101,4.41776451 12.6669943,4.23308026 12.6669943,4.00442357 L12.6669943,3.32431649 L14.0653179,3.32431649 L14.0653179,14.0653179 L14.0653179,14.0653179 Z" id="Shape"></path>
                    </g>
                </g>
            </g>
        </g>
    </g>
</svg>