<?xml version="1.0" encoding="UTF-8"?>
<svg width="36px" height="30px" viewBox="0 0 36 30" version="1.1" xmlns="http://www.w3.org/2000/svg" xmlns:xlink="http://www.w3.org/1999/xlink">
    <!-- Generator: Sketch 47.1 (45422) - http://www.bohemiancoding.com/sketch -->
    <title>Shape</title>
    <desc>Created with Sketch.</desc>
    <defs></defs>
    <g id="HR-Manager" stroke="none" stroke-width="1" fill="none" fill-rule="evenodd">
        <g id="Enroll---step1" transform="translate(-586.000000, -205.000000)" fill-rule="nonzero" fill="#D1E2FF">
            <g id="Group-6" transform="translate(586.000000, 205.000000)">
                <g id="product-black">
                    <path d="M35.9015992,10.5144124 L32.5871792,4.21293645 C32.4747067,3.99918538 32.2831222,3.85209743 32.0660223,3.79172329 C32.0645559,3.79135336 32.0636761,3.79083544 32.0621364,3.79039151 L18.2544115,0.0293642731 C18.1108514,-0.00962735353 17.9595927,-0.00984931725 17.8159593,0.0290683214 L3.9388006,3.79009556 C3.93726089,3.79053949 3.93623441,3.7910574 3.93462138,3.79150133 C3.71715495,3.85172749 3.52527713,3.99896342 3.41273129,4.21293645 L0.0983846059,10.5144124 C-0.00961540871,10.7198029 -0.0296317047,10.9608555 0.0429548632,11.1814874 C0.115541431,11.4021193 0.274498683,11.5832417 0.482800136,11.6825335 L3.36653983,13.0581167 L3.36653983,21.6661656 C3.36653983,21.9927482 3.55174556,22.2905496 3.84326495,22.4323844 L17.66822,29.1654318 C17.7843585,29.2220326 17.909662,29.25 18.0345988,29.25 C18.1585826,29.25 18.2818331,29.2212187 18.3958453,29.1666156 C18.3976783,29.1661717 18.399438,29.1662457 18.4011243,29.1653578 L32.2260794,22.4323104 C32.5175988,22.2904016 32.7028045,21.9926742 32.7028045,21.6660916 L32.7028045,13.0588565 C32.7028045,13.0477583 32.7015581,13.0368821 32.7011915,13.0259319 L35.517257,11.6826075 C35.7255585,11.5832417 35.8845157,11.4021933 35.9571023,11.1815614 C36.0296155,10.9607815 36.0095992,10.7198769 35.9015992,10.5144124 Z M18.0340856,1.73197397 L29.0750891,4.7393604 L17.9999919,8.88135137 L6.93017372,4.74143206 L18.0340856,1.73197397 Z M4.55637299,5.66842654 L16.8661751,10.272176 L14.1550301,16.3222411 L2.002059,10.5249927 L4.55637299,5.66842654 Z M5.05289444,21.1320469 L5.05289444,13.8625872 L14.20958,18.2304632 C14.3233723,18.2847703 14.4465495,18.3121459 14.5699466,18.3121459 C14.6682684,18.3121459 14.7668102,18.2948327 14.8608795,18.2599104 C15.0731402,18.1811873 15.245075,18.0197456 15.3382645,17.8118396 L17.1914949,13.6762116 L17.1914949,27.0438286 L5.05289444,21.1320469 Z M31.0163766,21.1320469 L18.8777761,27.0438286 L18.8777761,13.8309203 L20.6617194,17.8118396 C20.7549088,18.0197456 20.9268436,18.1811133 21.1391044,18.2599104 C21.2331736,18.2948327 21.3317154,18.3121459 21.4300372,18.3121459 C21.5535077,18.3121459 21.6766116,18.2848443 21.7904038,18.2304632 L31.0163766,13.8295146 L31.0163766,21.1320469 L31.0163766,21.1320469 Z M21.8449537,16.3221671 L19.1337354,10.272102 L31.4435375,5.66835255 L33.9979248,10.5249187 L21.8449537,16.3221671 Z" id="Shape"></path>
                </g>
            </g>
        </g>
    </g>
</svg>