<?xml version="1.0" encoding="UTF-8"?>
<svg width="21px" height="32px" viewBox="0 0 21 32" version="1.1" xmlns="http://www.w3.org/2000/svg" xmlns:xlink="http://www.w3.org/1999/xlink">
    <!-- Generator: Sketch 47.1 (45422) - http://www.bohemiancoding.com/sketch -->
    <title>text-document</title>
    <desc>Created with Sketch.</desc>
    <defs></defs>
    <g id="HR-Manager" stroke="none" stroke-width="1" fill="none" fill-rule="evenodd">
        <g id="Enroll---step1" transform="translate(-1037.000000, -203.000000)" fill-rule="nonzero" fill="#D1E2FF">
            <g id="Group-8" transform="translate(1037.000000, 203.000000)">
                <g id="text-document">
                    <path d="M20.8567736,11.2007667 L9.87737516,0.0313543506 L9.846471,0 L8.18352522,0 L1.86970177,0 C1.34603909,0 0.8995971,0.18756116 0.545470366,0.547672131 C0.191303909,0.907460277 0.0063556116,1.36098865 0.0063556116,1.87726608 L0.0063556116,30.0824212 C0.0063556116,31.1463707 0.822733922,31.9596873 1.86970177,31.9596873 L19.0242919,31.9596873 C19.5325422,31.9596873 19.9753695,31.7681311 20.3334288,31.4123783 C20.699075,31.0485952 20.8876778,30.6144363 20.8876778,30.0824615 L20.8876778,12.9372005 L20.8876778,11.2007667 L20.8567736,11.2007667 Z M9.87737516,2.48732409 L18.4546305,11.2007667 L10.031459,11.2007667 C9.9233739,11.2007667 9.87737516,11.1383808 9.87737516,11.0132055 L9.87737516,2.48732409 L9.87737516,2.48732409 Z M19.1784155,30.0823808 C19.1784155,30.1921816 19.132099,30.2389105 19.0243317,30.2389105 L1.86974149,30.2389105 C1.76201387,30.2389105 1.71565763,30.1921816 1.71565763,30.0823808 L1.71565763,1.87726608 C1.71565763,1.7678285 1.76201387,1.72073644 1.86974149,1.72073644 L8.18356494,1.72073644 L8.18356494,11.0132055 C8.18356494,12.0767919 8.98417339,12.9372005 10.0314987,12.9372005 L19.1784552,12.9372005 L19.1784552,30.0823808 L19.1784155,30.0823808 Z" id="Shape"></path>
                    <path d="M2.97847793,16.6602976 C2.97847793,17.1452207 3.34805675,17.5520605 3.8254029,17.5520605 L17.06871,17.5520605 C17.5460164,17.5520605 17.9155952,17.1452207 17.9155952,16.6602976 C17.9155952,16.2067692 17.5459767,15.7842724 17.06871,15.7842724 L3.8254029,15.7842724 C3.34805675,15.7842724 2.97847793,16.2067692 2.97847793,16.6602976 Z" id="Shape"></path>
                    <path d="M17.0686702,19.9455637 L3.8254029,19.9455637 C3.34805675,19.9455637 2.97847793,20.3366658 2.97847793,20.8216293 C2.97847793,21.3065523 3.34805675,21.6819571 3.8254029,21.6819571 L17.06871,21.6819571 C17.5460164,21.6819571 17.9155952,21.306512 17.9155952,20.8216293 C17.9155952,20.3367062 17.5459767,19.9455637 17.0686702,19.9455637 Z" id="Shape"></path>
                    <path d="M17.0686702,24.0912383 L3.8254029,24.0912383 C3.34805675,24.0912383 2.97847793,24.4663607 2.97847793,24.9515662 C2.97847793,25.4364893 3.34805675,25.8119344 3.8254029,25.8119344 L17.06871,25.8119344 C17.5460164,25.8119344 17.9155952,25.4364489 17.9155952,24.9515662 C17.9155952,24.4663607 17.5459767,24.0912383 17.0686702,24.0912383 Z" id="Shape"></path>
                </g>
            </g>
        </g>
    </g>
</svg>